<?xml version="1.0" standalone="no"?><!DOCTYPE svg PUBLIC "-//W3C//DTD SVG 1.1//EN" "http://www.w3.org/Graphics/SVG/1.1/DTD/svg11.dtd"><svg t="1710818206531" class="icon" viewBox="0 0 1024 1024" version="1.1" xmlns="http://www.w3.org/2000/svg" p-id="10071" xmlns:xlink="http://www.w3.org/1999/xlink" width="200" height="200"><path d="M308.273717 200.395385a26.203266 26.203266 0 0 0 8.734422 0 27.744635 27.744635 0 0 0 26.717056-20.037792 175.716019 175.716019 0 0 1 336.018352 0 28.258424 28.258424 0 0 0 35.451477 18.496424 27.744635 27.744635 0 0 0 18.496423-34.937688 232.232867 232.232867 0 0 0-443.914153 0 27.744635 27.744635 0 0 0 18.496423 36.479056z" fill="#1296db" p-id="10072"></path><path d="M994.182738 569.810056h-163.898859V345.797822a22.606739 22.606739 0 0 0 0-5.137895 173.147071 173.147071 0 0 0 162.87128-172.633282v-9.248212a28.258424 28.258424 0 0 0-56.516848 0v9.248212a117.144013 117.144013 0 0 1-117.144012 117.144012H205.515812a117.657802 117.657802 0 0 1-118.685382-117.144012v-9.248212a28.258424 28.258424 0 1 0-56.003058 0v9.248212A173.147071 173.147071 0 0 0 193.184863 340.659927a22.606739 22.606739 0 0 0 0 5.137895v224.012234H28.258424a28.258424 28.258424 0 1 0 0 56.516849h163.89886v86.31664a302.622033 302.622033 0 0 0 4.110316 48.810006A173.147071 173.147071 0 0 0 30.827372 934.600622a28.258424 28.258424 0 1 0 56.003058 0A118.171592 118.171592 0 0 1 205.515812 816.94282h5.137895a311.356455 311.356455 0 0 0 292.860031 205.515811h15.927476a311.356455 311.356455 0 0 0 292.860031-205.515811h6.165475a117.657802 117.657802 0 0 1 117.144012 117.657802 28.258424 28.258424 0 1 0 56.516848 0 173.660861 173.660861 0 0 0-165.954017-173.147071 302.622033 302.622033 0 0 0 4.110316-48.810006v-86.31664h163.898859a28.258424 28.258424 0 0 0 0-56.516849z m-220.415707 142.833489a253.298238 253.298238 0 0 1-229.66392 252.270659v-379.690462a33.396319 33.396319 0 1 0-66.792639 0v379.690462a256.894764 256.894764 0 0 1-228.63634-252.270659V345.797822v-4.110316h526.120478v4.110316z" fill="#1296db" p-id="10073"></path></svg>